<mxfile host="app.diagrams.net" modified="2022-11-11T11:30:17.874Z" agent="5.0 (Windows NT 10.0; Win64; x64) AppleWebKit/537.36 (KHTML, like Gecko) Chrome/106.0.0.0 Safari/537.36 Edg/106.0.1370.52" etag="OP4Ktf32e7qFddoBU38Y" version="20.5.3" type="github">
  <diagram id="prtHgNgQTEPvFCAcTncT" name="Page-1">
    <mxGraphModel dx="1146" dy="655" grid="0" gridSize="10" guides="1" tooltips="1" connect="1" arrows="1" fold="1" page="1" pageScale="1" pageWidth="827" pageHeight="1169" background="#ffffff" math="0" shadow="0">
      <root>
        <mxCell id="0" />
        <mxCell id="1" parent="0" />
        <mxCell id="dNxyNK7c78bLwvsdeMH5-11" value="Framework Overview" style="swimlane;html=1;startSize=20;horizontal=1;containerType=tree;glass=0;labelBackgroundColor=default;" parent="1" vertex="1">
          <mxGeometry x="70" y="70" width="710" height="290" as="geometry">
            <mxRectangle x="70" y="70" width="160" height="30" as="alternateBounds" />
          </mxGeometry>
        </mxCell>
        <mxCell id="CWsrs0gQDWb_5B1vGRUI-24" style="edgeStyle=orthogonalEdgeStyle;rounded=0;orthogonalLoop=1;jettySize=auto;html=1;exitX=0.5;exitY=0;exitDx=0;exitDy=0;entryX=0.5;entryY=1;entryDx=0;entryDy=0;" edge="1" parent="dNxyNK7c78bLwvsdeMH5-11" source="CWsrs0gQDWb_5B1vGRUI-2" target="CWsrs0gQDWb_5B1vGRUI-14">
          <mxGeometry relative="1" as="geometry" />
        </mxCell>
        <mxCell id="CWsrs0gQDWb_5B1vGRUI-30" style="edgeStyle=orthogonalEdgeStyle;rounded=0;orthogonalLoop=1;jettySize=auto;html=1;exitX=0.106;exitY=0.1;exitDx=0;exitDy=0;entryX=0.5;entryY=1;entryDx=0;entryDy=0;exitPerimeter=0;" edge="1" parent="dNxyNK7c78bLwvsdeMH5-11" source="CWsrs0gQDWb_5B1vGRUI-27" target="CWsrs0gQDWb_5B1vGRUI-2">
          <mxGeometry relative="1" as="geometry" />
        </mxCell>
        <mxCell id="CWsrs0gQDWb_5B1vGRUI-2" value="Client 1" style="label;whiteSpace=wrap;html=1;image=img/clipart/Gear_128x128.png;arcSize=37;labelBackgroundColor=#FFE6CC;fillColor=#FFE6CC;strokeColor=#d79b00;" vertex="1" parent="dNxyNK7c78bLwvsdeMH5-11">
          <mxGeometry x="21" y="170" width="140" height="60" as="geometry" />
        </mxCell>
        <mxCell id="CWsrs0gQDWb_5B1vGRUI-33" style="edgeStyle=orthogonalEdgeStyle;rounded=0;orthogonalLoop=1;jettySize=auto;html=1;exitX=0.903;exitY=-0.05;exitDx=0;exitDy=0;entryX=0.5;entryY=1;entryDx=0;entryDy=0;exitPerimeter=0;" edge="1" parent="dNxyNK7c78bLwvsdeMH5-11" source="CWsrs0gQDWb_5B1vGRUI-27" target="CWsrs0gQDWb_5B1vGRUI-11">
          <mxGeometry relative="1" as="geometry">
            <Array as="points">
              <mxPoint x="634" y="250" />
              <mxPoint x="631" y="250" />
            </Array>
          </mxGeometry>
        </mxCell>
        <mxCell id="CWsrs0gQDWb_5B1vGRUI-11" value="Client 4" style="label;whiteSpace=wrap;html=1;image=img/clipart/Gear_128x128.png;arcSize=37;fillColor=#ffe6cc;strokeColor=#d79b00;" vertex="1" parent="dNxyNK7c78bLwvsdeMH5-11">
          <mxGeometry x="561" y="170" width="140" height="60" as="geometry" />
        </mxCell>
        <mxCell id="CWsrs0gQDWb_5B1vGRUI-31" style="edgeStyle=orthogonalEdgeStyle;rounded=0;orthogonalLoop=1;jettySize=auto;html=1;exitX=0.368;exitY=0;exitDx=0;exitDy=0;entryX=0.5;entryY=1;entryDx=0;entryDy=0;exitPerimeter=0;" edge="1" parent="dNxyNK7c78bLwvsdeMH5-11" source="CWsrs0gQDWb_5B1vGRUI-27" target="CWsrs0gQDWb_5B1vGRUI-10">
          <mxGeometry relative="1" as="geometry" />
        </mxCell>
        <mxCell id="CWsrs0gQDWb_5B1vGRUI-10" value="&amp;nbsp;Client 2" style="label;whiteSpace=wrap;html=1;image=img/clipart/Gear_128x128.png;arcSize=37;fillColor=#ffe6cc;strokeColor=#d79b00;" vertex="1" parent="dNxyNK7c78bLwvsdeMH5-11">
          <mxGeometry x="201" y="170" width="140" height="60" as="geometry" />
        </mxCell>
        <mxCell id="CWsrs0gQDWb_5B1vGRUI-32" style="edgeStyle=orthogonalEdgeStyle;rounded=0;orthogonalLoop=1;jettySize=auto;html=1;exitX=0.5;exitY=1;exitDx=0;exitDy=0;entryX=0.5;entryY=1;entryDx=0;entryDy=0;" edge="1" parent="dNxyNK7c78bLwvsdeMH5-11" target="CWsrs0gQDWb_5B1vGRUI-9">
          <mxGeometry relative="1" as="geometry">
            <mxPoint x="455" y="250" as="sourcePoint" />
          </mxGeometry>
        </mxCell>
        <mxCell id="CWsrs0gQDWb_5B1vGRUI-9" value="Client 3" style="label;whiteSpace=wrap;html=1;image=img/clipart/Gear_128x128.png;arcSize=37;fillColor=#ffe6cc;strokeColor=#d79b00;" vertex="1" parent="dNxyNK7c78bLwvsdeMH5-11">
          <mxGeometry x="381" y="170" width="140" height="60" as="geometry" />
        </mxCell>
        <mxCell id="CWsrs0gQDWb_5B1vGRUI-16" style="edgeStyle=orthogonalEdgeStyle;rounded=0;orthogonalLoop=1;jettySize=auto;html=1;exitX=0.5;exitY=1;exitDx=0;exitDy=0;entryX=0.5;entryY=0;entryDx=0;entryDy=0;" edge="1" parent="dNxyNK7c78bLwvsdeMH5-11" source="CWsrs0gQDWb_5B1vGRUI-14" target="CWsrs0gQDWb_5B1vGRUI-2">
          <mxGeometry relative="1" as="geometry" />
        </mxCell>
        <mxCell id="CWsrs0gQDWb_5B1vGRUI-18" style="edgeStyle=orthogonalEdgeStyle;rounded=0;orthogonalLoop=1;jettySize=auto;html=1;exitX=0.5;exitY=1;exitDx=0;exitDy=0;entryX=0.5;entryY=0;entryDx=0;entryDy=0;" edge="1" parent="dNxyNK7c78bLwvsdeMH5-11" source="CWsrs0gQDWb_5B1vGRUI-14" target="CWsrs0gQDWb_5B1vGRUI-10">
          <mxGeometry relative="1" as="geometry" />
        </mxCell>
        <mxCell id="CWsrs0gQDWb_5B1vGRUI-20" style="edgeStyle=orthogonalEdgeStyle;rounded=0;orthogonalLoop=1;jettySize=auto;html=1;exitX=0.5;exitY=1;exitDx=0;exitDy=0;entryX=0.5;entryY=0;entryDx=0;entryDy=0;" edge="1" parent="dNxyNK7c78bLwvsdeMH5-11" source="CWsrs0gQDWb_5B1vGRUI-14" target="CWsrs0gQDWb_5B1vGRUI-9">
          <mxGeometry relative="1" as="geometry" />
        </mxCell>
        <mxCell id="CWsrs0gQDWb_5B1vGRUI-22" style="edgeStyle=orthogonalEdgeStyle;rounded=0;orthogonalLoop=1;jettySize=auto;html=1;exitX=0.5;exitY=1;exitDx=0;exitDy=0;" edge="1" parent="dNxyNK7c78bLwvsdeMH5-11" source="CWsrs0gQDWb_5B1vGRUI-14" target="CWsrs0gQDWb_5B1vGRUI-11">
          <mxGeometry relative="1" as="geometry" />
        </mxCell>
        <mxCell id="CWsrs0gQDWb_5B1vGRUI-14" value="Server" style="shape=ext;double=1;rounded=0;whiteSpace=wrap;html=1;fillColor=#dae8fc;strokeColor=#6c8ebf;" vertex="1" parent="dNxyNK7c78bLwvsdeMH5-11">
          <mxGeometry x="302.5" y="30" width="105" height="60" as="geometry" />
        </mxCell>
        <mxCell id="CWsrs0gQDWb_5B1vGRUI-27" value="&lt;b&gt;Feature extraction&lt;/b&gt;" style="rounded=0;whiteSpace=wrap;html=1;fillColor=#fff2cc;strokeColor=#d6b656;" vertex="1" parent="dNxyNK7c78bLwvsdeMH5-11">
          <mxGeometry x="21" y="250" width="679" height="20" as="geometry" />
        </mxCell>
        <mxCell id="CWsrs0gQDWb_5B1vGRUI-43" value="" style="sketch=0;aspect=fixed;pointerEvents=1;shadow=0;dashed=0;html=1;strokeColor=none;labelPosition=center;verticalLabelPosition=bottom;verticalAlign=top;align=center;fillColor=#00188D;shape=mxgraph.mscae.enterprise.lock" vertex="1" parent="dNxyNK7c78bLwvsdeMH5-11">
          <mxGeometry x="420" y="42.5" width="27.3" height="35" as="geometry" />
        </mxCell>
        <mxCell id="CWsrs0gQDWb_5B1vGRUI-44" value="" style="sketch=0;aspect=fixed;pointerEvents=1;shadow=0;dashed=0;html=1;strokeColor=none;labelPosition=center;verticalLabelPosition=bottom;verticalAlign=top;align=center;fillColor=#00188D;shape=mxgraph.mscae.enterprise.lock_unlocked" vertex="1" parent="dNxyNK7c78bLwvsdeMH5-11">
          <mxGeometry x="50" y="127.5" width="25.9" height="35" as="geometry" />
        </mxCell>
      </root>
    </mxGraphModel>
  </diagram>
</mxfile>
